<?xml version="1.0" encoding="iso-8859-1"?>
<!-- Generator: Adobe Illustrator 19.0.0, SVG Export Plug-In . SVG Version: 6.00 Build 0)  -->
<svg version="1.1" id="Capa_1" xmlns="http://www.w3.org/2000/svg" xmlns:xlink="http://www.w3.org/1999/xlink" x="0px" y="0px"
	 viewBox="0 0 511.978 511.978" style="enable-background:new 0 0 511.978 511.978;" xml:space="preserve">
<g>
	<g>
		<path d="M301.399,1.807c-11.124,0-20.407,8.037-22.346,18.609L105.068,148.203H41.924c-21.99,0-39.88,17.891-39.88,39.88v137.309
			c0,21.99,17.891,39.88,39.88,39.88h63.144l173.986,127.785c1.938,10.573,11.221,18.61,22.345,18.61h55.025V1.807H301.399z
			 M341.278,496.523h-39.88c-4.176,0-7.572-3.396-7.572-7.572v-3.834V89.139h-15.144v384.855L115.122,353.866V190.102H99.977
			v160.026H41.924c-13.639,0-24.736-11.097-24.736-24.736V188.083c0-13.639,11.097-24.736,24.736-24.736h68.107L293.825,28.356
			v-3.833c0-4.176,3.396-7.572,7.572-7.572h39.88V496.523z"/>
	</g>
</g>
<g>
	<g>
		<rect x="309.982" y="309.743" width="15.144" height="15.144"/>
	</g>
</g>
<g>
	<g>
		<rect x="309.982" y="279.454" width="15.144" height="15.144"/>
	</g>
</g>
<g>
	<g>
		<rect x="309.982" y="218.876" width="15.144" height="15.144"/>
	</g>
</g>
<g>
	<g>
		<rect x="309.982" y="188.588" width="15.144" height="15.144"/>
	</g>
</g>
<g>
	<g>
		<rect x="309.982" y="249.165" width="15.144" height="15.144"/>
	</g>
</g>
<g>
	<g>
		
			<rect x="390.272" y="68.889" transform="matrix(0.8386 -0.5447 0.5447 0.8386 22.5539 229.0508)" width="15.144" height="15.144"/>
	</g>
</g>
<g>
	<g>
		<rect x="491.875" y="2.903" transform="matrix(0.8386 -0.5447 0.5447 0.8386 74.8942 273.7462)" width="15.144" height="15.144"/>
	</g>
</g>
<g>
	<g>
		<rect x="415.67" y="52.392" transform="matrix(0.8386 -0.5447 0.5447 0.8386 35.6383 240.2217)" width="15.144" height="15.144"/>
	</g>
</g>
<g>
	<g>
		
			<rect x="441.072" y="35.892" transform="matrix(0.8386 -0.5447 0.5447 0.8386 48.7257 251.3967)" width="15.144" height="15.144"/>
	</g>
</g>
<g>
	<g>
		
			<rect x="466.496" y="19.408" transform="matrix(0.8386 -0.5447 0.5447 0.8386 61.8081 262.5854)" width="15.144" height="15.144"/>
	</g>
</g>
<g>
	<g>
		
			<rect x="441.069" y="127.766" transform="matrix(0.8386 -0.5447 0.5447 0.8386 -1.3195 266.2217)" width="15.144" height="15.144"/>
	</g>
</g>
<g>
	<g>
		
			<rect x="390.27" y="160.763" transform="matrix(0.8386 -0.5447 0.5447 0.8386 -27.4913 243.8758)" width="15.144" height="15.144"/>
	</g>
</g>
<g>
	<g>
		
			<rect x="466.501" y="111.284" transform="matrix(0.8386 -0.5447 0.5447 0.8386 11.7625 277.4151)" width="15.144" height="15.144"/>
	</g>
</g>
<g>
	<g>
		
			<rect x="491.887" y="94.783" transform="matrix(0.8386 -0.5447 0.5447 0.8386 24.8474 288.5805)" width="15.144" height="15.144"/>
	</g>
</g>
<g>
	<g>
		
			<rect x="415.669" y="144.264" transform="matrix(0.8386 -0.5447 0.5447 0.8386 -14.4054 255.0488)" width="15.144" height="15.144"/>
	</g>
</g>
<g>
	<g>
		
			<rect x="464.237" y="477.432" transform="matrix(0.5448 -0.8386 0.8386 0.5448 -191.9386 616.4292)" width="15.145" height="15.145"/>
	</g>
</g>
<g>
	<g>
		
			<rect x="438.806" y="460.97" transform="matrix(0.5447 -0.8386 0.8386 0.5447 -189.7001 587.6625)" width="15.144" height="15.144"/>
	</g>
</g>
<g>
	<g>
		
			<rect x="489.632" y="493.93" transform="matrix(0.5448 -0.8386 0.8386 0.5448 -194.2128 645.2347)" width="15.145" height="15.145"/>
	</g>
</g>
<g>
	<g>
		
			<rect x="387.995" y="427.973" transform="matrix(0.5447 -0.8386 0.8386 0.5447 -185.1616 530.0286)" width="15.144" height="15.144"/>
	</g>
</g>
<g>
	<g>
		
			<rect x="413.404" y="444.465" transform="matrix(0.5447 -0.8386 0.8386 0.5447 -187.4234 558.8453)" width="15.144" height="15.144"/>
	</g>
</g>
<g>
	<g>
		
			<rect x="464.23" y="385.559" transform="matrix(0.5448 -0.8386 0.8386 0.5448 -114.8986 574.6034)" width="15.145" height="15.145"/>
	</g>
</g>
<g>
	<g>
		
			<rect x="489.625" y="402.057" transform="matrix(0.5448 -0.8386 0.8386 0.5448 -117.1733 603.4069)" width="15.145" height="15.145"/>
	</g>
</g>
<g>
	<g>
		
			<rect x="413.406" y="352.591" transform="matrix(0.5447 -0.8386 0.8386 0.5447 -110.3755 517.0187)" width="15.144" height="15.144"/>
	</g>
</g>
<g>
	<g>
		
			<rect x="438.808" y="369.097" transform="matrix(0.5447 -0.8386 0.8386 0.5447 -112.6522 545.8358)" width="15.144" height="15.144"/>
	</g>
</g>
<g>
	<g>
		
			<rect x="387.997" y="336.1" transform="matrix(0.5447 -0.8386 0.8386 0.5447 -108.1137 488.2019)" width="15.144" height="15.144"/>
	</g>
</g>
<g>
	<g>
		<rect x="488.194" y="251.1" transform="matrix(0.0093 -1 1 0.0093 232.4946 752.0118)" width="15.145" height="15.145"/>
	</g>
</g>
<g>
	<g>
		<rect x="457.905" y="250.817" transform="matrix(0.0093 -1 1 0.0093 202.7717 721.4449)" width="15.145" height="15.145"/>
	</g>
</g>
<g>
	<g>
		<rect x="427.571" y="250.519" transform="matrix(0.0093 -1 1 0.0093 173.0154 690.8152)" width="15.145" height="15.145"/>
	</g>
</g>
<g>
	<g>
		<rect x="397.289" y="250.235" transform="matrix(0.0093 -1 1 0.0093 143.3011 660.2552)" width="15.145" height="15.145"/>
	</g>
</g>
<g>
</g>
<g>
</g>
<g>
</g>
<g>
</g>
<g>
</g>
<g>
</g>
<g>
</g>
<g>
</g>
<g>
</g>
<g>
</g>
<g>
</g>
<g>
</g>
<g>
</g>
<g>
</g>
<g>
</g>
</svg>
